<svg width="51" height="51" viewBox="0 0 51 51" fill="none" xmlns="http://www.w3.org/2000/svg">
<g id="Item &#226;&#134;&#146; Link &#226;&#134;&#146; SVG" clip-path="url(#clip0_55_2915)">
<path id="Vector" d="M25.5 50.6602C39.3071 50.6602 50.5 39.4673 50.5 25.6602C50.5 11.853 39.3071 0.660156 25.5 0.660156C11.6929 0.660156 0.5 11.853 0.5 25.6602C0.5 39.4673 11.6929 50.6602 25.5 50.6602Z" fill="#4E6297"/>
<path id="Vector_2" d="M36.75 17.9335C36.75 16.0618 35.0984 14.4102 33.2267 14.4102H19.0233C17.1516 14.4102 15.5 16.0618 15.5 17.9335V32.1369C15.5 34.0086 17.1516 35.6602 19.0233 35.6602H26.18V27.6226H23.5376V24.0993H26.18V22.668C26.18 20.2457 27.9417 18.1537 30.1438 18.1537H33.0065V21.677H30.1438C29.8135 21.677 29.4832 22.0073 29.4832 22.668V24.0993H33.0065V27.6226H29.4832V35.6602H33.2267C35.0984 35.6602 36.75 34.0086 36.75 32.1369V17.9335Z" fill="white"/>
</g>
<defs>
<clipPath id="clip0_55_2915">
<rect width="50" height="50" fill="white" transform="translate(0.5 0.660156)"/>
</clipPath>
</defs>
</svg>
