<svg width="51" height="51" viewBox="0 0 51 51" fill="none" xmlns="http://www.w3.org/2000/svg">
<g id="Item &#226;&#134;&#146; Link &#226;&#134;&#146; SVG" clip-path="url(#clip0_55_2918)">
<path id="Vector" d="M25.5 50.6602C39.3071 50.6602 50.5 39.4673 50.5 25.6602C50.5 11.853 39.3071 0.660156 25.5 0.660156C11.6929 0.660156 0.5 11.853 0.5 25.6602C0.5 39.4673 11.6929 50.6602 25.5 50.6602Z" fill="url(#paint0_linear_55_2918)"/>
<path id="Vector_2" d="M33.726 15.6602H18.524C16.8077 15.6602 15.5 16.9679 15.5 18.6842V33.8862C15.5 35.6025 16.8077 36.9102 18.524 36.9102H33.726C35.4423 36.9102 36.75 35.6025 36.75 33.8862V18.6842C36.75 16.9679 35.4423 15.6602 33.726 15.6602ZM26.125 32.6602C29.6394 32.6602 32.5 29.8814 32.5 26.5304C32.5 25.9583 32.4183 25.3044 32.2548 24.814H34.0529V33.4775C34.0529 33.8862 33.726 34.2948 33.2356 34.2948H19.0144C18.6058 34.2948 18.1971 33.9679 18.1971 33.4775V24.7323H20.0769C19.9135 25.3044 19.8317 25.8765 19.8317 26.4487C19.75 29.8814 22.6106 32.6602 26.125 32.6602ZM26.125 30.2083C23.8365 30.2083 22.0385 28.4102 22.0385 26.2035C22.0385 23.9967 23.8365 22.1987 26.125 22.1987C28.4135 22.1987 30.2115 23.9967 30.2115 26.2035C30.2115 28.4919 28.4135 30.2083 26.125 30.2083ZM33.9712 21.4631C33.9712 21.9535 33.5625 22.3621 33.0721 22.3621H30.7837C30.2933 22.3621 29.8846 21.9535 29.8846 21.4631V19.2564C29.8846 18.766 30.2933 18.3573 30.7837 18.3573H33.0721C33.5625 18.3573 33.9712 18.766 33.9712 19.2564V21.4631Z" fill="white"/>
</g>
<defs>
<linearGradient id="paint0_linear_55_2918" x1="11.125" y1="45.0352" x2="44.25" y2="10.6602" gradientUnits="userSpaceOnUse">
<stop stop-color="#EEA054"/>
<stop offset="0.502762" stop-color="#D64763"/>
<stop offset="1" stop-color="#B62A99"/>
</linearGradient>
<clipPath id="clip0_55_2918">
<rect width="50" height="50" fill="white" transform="translate(0.5 0.660156)"/>
</clipPath>
</defs>
</svg>
