<svg width="51" height="51" viewBox="0 0 51 51" fill="none" xmlns="http://www.w3.org/2000/svg">
<g id="Item &#226;&#134;&#146; Link &#226;&#134;&#146; SVG" clip-path="url(#clip0_55_2921)">
<path id="Vector" d="M25.5 50.6602C39.3071 50.6602 50.5 39.4673 50.5 25.6602C50.5 11.853 39.3071 0.660156 25.5 0.660156C11.6929 0.660156 0.5 11.853 0.5 25.6602C0.5 39.4673 11.6929 50.6602 25.5 50.6602Z" fill="#F40000"/>
<path id="Vector_2" d="M36.3914 24.3016C36.3914 23.8168 36.3106 23.2511 36.3106 22.6046C36.2298 21.9582 36.149 21.3117 36.0682 20.7461C35.9066 20.0996 35.6641 19.6147 35.1793 19.2107C34.7752 18.8067 34.2096 18.5642 33.6439 18.4834C31.7854 18.241 29.0379 18.1602 25.3207 18.1602C21.6035 18.1602 18.7752 18.241 16.9975 18.4834C16.4318 18.5642 15.8662 18.8067 15.4621 19.2107C15.0581 19.6147 14.7348 20.0996 14.5732 20.7461C14.4116 21.3117 14.3308 21.8774 14.3308 22.6046C14.25 23.2511 14.25 23.8168 14.25 24.3016C14.25 24.7865 14.25 25.3521 14.25 26.1602C14.25 26.9683 14.25 27.6147 14.25 28.0188C14.25 28.5036 14.3308 29.0693 14.3308 29.7158C14.4116 30.3622 14.4924 31.0087 14.5732 31.5743C14.7348 32.2208 14.9773 32.7057 15.4621 33.1097C15.8662 33.5137 16.4318 33.7562 16.9975 33.837C18.8561 34.0794 21.6035 34.1602 25.3207 34.1602C29.0379 34.1602 31.8662 34.0794 33.6439 33.837C34.2096 33.7562 34.7752 33.5137 35.1793 33.1097C35.5833 32.7057 35.9066 32.2208 36.0682 31.5743C36.2298 31.0087 36.3106 30.443 36.3106 29.7158C36.3914 29.0693 36.3914 28.5036 36.3914 28.0188C36.3914 27.5339 36.3914 26.9683 36.3914 26.1602C36.3914 25.3521 36.3914 24.7056 36.3914 24.3016ZM29.6035 26.8067L23.2197 30.7663C23.1389 30.8471 22.9773 30.9279 22.8157 30.9279C22.654 30.9279 22.5732 30.9279 22.4116 30.8471C22.1692 30.6855 22.0076 30.443 22.0076 30.1198V22.1198C22.0076 21.7966 22.1692 21.5541 22.4116 21.3925C22.654 21.2309 22.9773 21.2309 23.2197 21.3925L29.6035 25.3521C29.846 25.5137 30.0076 25.7562 30.0076 25.9986C30.0076 26.241 29.846 26.645 29.6035 26.8067Z" fill="white"/>
</g>
<defs>
<clipPath id="clip0_55_2921">
<rect width="50" height="50" fill="white" transform="translate(0.5 0.660156)"/>
</clipPath>
</defs>
</svg>
